<svg xmlns="http://www.w3.org/2000/svg" xmlns:xlink="http://www.w3.org/1999/xlink" version="1.1" x="0px" y="0px" viewBox="0 0 100 125" style="enable-background:new 0 0 100 100;" xml:space="preserve"><g><path d="M50,21.911c-0.812,0-1.637,0.046-2.452,0.136c-10.308,1.139-18.516,9.83-19.092,20.215   c-0.347,6.265,2.029,12.356,6.519,16.711c3.721,3.61,5.854,8.582,5.854,13.641v2.838c0,2.733,2.223,4.956,4.956,4.956h8.429   c2.733,0,4.956-2.223,4.956-4.956v-2.835c0-5.124,2.083-10.048,5.714-13.508c4.316-4.113,6.693-9.66,6.693-15.62   C71.578,31.591,61.898,21.911,50,21.911z M62.815,56.937c-4.223,4.023-6.645,9.739-6.645,15.68v2.835   c0,1.079-0.877,1.956-1.956,1.956h-8.429c-1.079,0-1.956-0.877-1.956-1.956v-2.838c0-5.865-2.466-11.622-6.766-15.794   c-3.866-3.75-5.912-8.995-5.613-14.392c0.496-8.939,7.558-16.42,16.426-17.4c0.707-0.078,1.421-0.118,2.123-0.118   c10.244,0,18.578,8.334,18.578,18.578C68.578,48.62,66.532,53.396,62.815,56.937z"/><path d="M57.26,82.474H42.74c-0.829,0-1.5,0.671-1.5,1.5s0.671,1.5,1.5,1.5h14.52c0.829,0,1.5-0.671,1.5-1.5   S58.088,82.474,57.26,82.474z"/><path d="M58.76,88.737c0-0.829-0.671-1.5-1.5-1.5H42.74c-0.829,0-1.5,0.671-1.5,1.5s0.671,1.5,1.5,1.5h14.52   C58.088,90.237,58.76,89.565,58.76,88.737z"/><path d="M55.13,93.5c0-0.829-0.671-1.5-1.5-1.5h-7.26c-0.829,0-1.5,0.671-1.5,1.5s0.671,1.5,1.5,1.5h7.26   C54.458,95,55.13,94.329,55.13,93.5z"/><path d="M14.556,43.444h8.686c0.829,0,1.5-0.671,1.5-1.5s-0.671-1.5-1.5-1.5h-8.686c-0.829,0-1.5,0.671-1.5,1.5   S13.727,43.444,14.556,43.444z"/><path d="M85.444,40.444h-8.686c-0.829,0-1.5,0.671-1.5,1.5s0.671,1.5,1.5,1.5h8.686c0.829,0,1.5-0.671,1.5-1.5   S86.273,40.444,85.444,40.444z"/><path d="M48.5,6.5v8.686c0,0.829,0.671,1.5,1.5,1.5s1.5-0.671,1.5-1.5V6.5C51.5,5.671,50.829,5,50,5S48.5,5.671,48.5,6.5z"/><path d="M76.124,15.821c-0.586-0.586-1.535-0.586-2.121,0l-6.142,6.142c-0.586,0.585-0.586,1.536,0,2.121   c0.293,0.293,0.677,0.439,1.061,0.439s0.768-0.146,1.061-0.439l6.142-6.142C76.709,17.356,76.709,16.406,76.124,15.821z"/><path d="M25.998,68.068l6.142-6.142c0.586-0.585,0.586-1.535,0-2.121s-1.535-0.586-2.121,0l-6.142,6.142   c-0.586,0.585-0.586,1.535,0,2.121c0.293,0.293,0.677,0.439,1.061,0.439S25.705,68.361,25.998,68.068z"/><path d="M30.019,24.084c0.293,0.293,0.677,0.439,1.061,0.439s0.768-0.146,1.061-0.439c0.586-0.585,0.586-1.536,0-2.121   l-6.142-6.142c-0.586-0.586-1.535-0.586-2.121,0c-0.586,0.585-0.586,1.536,0,2.121L30.019,24.084z"/><path d="M76.124,65.947l-6.142-6.142c-0.586-0.586-1.535-0.586-2.121,0s-0.586,1.536,0,2.121l6.142,6.142   c0.293,0.293,0.677,0.439,1.061,0.439s0.768-0.146,1.061-0.439C76.709,67.482,76.709,66.532,76.124,65.947z"/></g><text x="0" y="115" fill="#000000" font-size="5px" font-weight="bold" font-family="'Helvetica Neue', Helvetica, Arial-Unicode, Arial, Sans-serif">Created by Maxim Kulikov</text><text x="0" y="120" fill="#000000" font-size="5px" font-weight="bold" font-family="'Helvetica Neue', Helvetica, Arial-Unicode, Arial, Sans-serif">from the Noun Project</text></svg>